<svg xmlns="http://www.w3.org/2000/svg" xmlns:xlink="http://www.w3.org/1999/xlink" width="50" zoomAndPan="magnify" viewBox="0 0 37.5 37.499999" height="50" preserveAspectRatio="xMidYMid meet" version="1.0"><defs><clipPath id="b03913efd5"><path d="M 11.101562 15 L 17 15 L 17 20 L 11.101562 20 Z M 11.101562 15 " clip-rule="nonzero"/></clipPath><clipPath id="13a34f283f"><path d="M 14 11.203125 L 20 11.203125 L 20 17 L 14 17 Z M 14 11.203125 " clip-rule="nonzero"/></clipPath><clipPath id="c612e68bb5"><path d="M 14.394531 20.535156 L 17.285156 20.535156 L 17.285156 23.285156 L 14.394531 23.285156 Z M 14.394531 20.535156 " clip-rule="nonzero"/></clipPath><clipPath id="9b3128ed8a"><path d="M 15.839844 20.535156 L 16.179688 21.585938 L 17.28125 21.585938 L 16.390625 22.234375 L 16.730469 23.285156 L 15.839844 22.636719 L 14.945312 23.285156 L 15.285156 22.234375 L 14.394531 21.585938 L 15.496094 21.585938 Z M 15.839844 20.535156 " clip-rule="nonzero"/></clipPath></defs><g clip-path="url(#b03913efd5)"><path fill="#feab82" d="M 16.421875 18.859375 C 15.226562 19.519531 11.109375 21.523438 11.597656 17.363281 C 12.113281 12.988281 15.953125 16.269531 16.710938 16.96875 C 16.480469 17.226562 16.335938 17.523438 16.285156 17.867188 C 16.230469 18.210938 16.277344 18.542969 16.421875 18.855469 Z M 16.421875 18.859375 " fill-opacity="1" fill-rule="nonzero"/></g><path fill="#feab82" d="M 15.101562 23.949219 C 11.410156 21.925781 15.40625 19.609375 16.515625 19.039062 C 16.695312 19.335938 16.941406 19.554688 17.253906 19.699219 C 17.566406 19.84375 17.890625 19.886719 18.230469 19.832031 C 18.390625 21.027344 18.847656 26.007812 15.101562 23.949219 Z M 15.101562 23.949219 " fill-opacity="1" fill-rule="nonzero"/><g clip-path="url(#13a34f283f)"><path fill="#feab82" d="M 18.648438 16.5625 C 18.339844 16.425781 18.023438 16.382812 17.695312 16.4375 C 17.363281 16.488281 17.074219 16.628906 16.828125 16.855469 C 16.058594 15.992188 12.84375 12.097656 17.109375 11.648438 C 21.339844 11.203125 19.210938 15.53125 18.648438 16.5625 Z M 18.648438 16.5625 " fill-opacity="1" fill-rule="nonzero"/></g><path fill="#feab82" d="M 22.558594 22.855469 C 19.375 25.757812 18.597656 20.910156 18.460938 19.78125 C 18.761719 19.683594 19.019531 19.519531 19.226562 19.28125 C 19.4375 19.042969 19.570312 18.765625 19.628906 18.449219 C 20.402344 18.601562 25.894531 19.804688 22.558594 22.855469 Z M 22.558594 22.855469 " fill-opacity="1" fill-rule="nonzero"/><path fill="#feab82" d="M 19.652344 18.273438 C 19.652344 18.242188 19.65625 18.207031 19.65625 18.175781 C 19.664062 17.863281 19.59375 17.574219 19.445312 17.300781 C 19.296875 17.03125 19.089844 16.816406 18.828125 16.65625 C 19.335938 15.773438 22.140625 11.261719 23.847656 15.34375 C 25.523438 19.339844 20.753906 18.511719 19.652344 18.273438 Z M 19.652344 18.273438 " fill-opacity="1" fill-rule="nonzero"/><path fill="#ff5e41" d="M 19.65625 18.175781 C 19.65625 18.207031 19.652344 18.242188 19.652344 18.273438 C 19.648438 18.332031 19.640625 18.390625 19.628906 18.449219 C 19.570312 18.765625 19.4375 19.039062 19.226562 19.28125 C 19.019531 19.519531 18.761719 19.683594 18.460938 19.78125 C 18.386719 19.804688 18.308594 19.820312 18.230469 19.835938 C 17.894531 19.890625 17.566406 19.84375 17.253906 19.699219 C 16.945312 19.554688 16.699219 19.335938 16.515625 19.039062 C 16.480469 18.980469 16.449219 18.921875 16.421875 18.859375 C 16.277344 18.542969 16.230469 18.214844 16.285156 17.871094 C 16.339844 17.527344 16.480469 17.226562 16.714844 16.96875 C 16.75 16.929688 16.789062 16.890625 16.828125 16.855469 C 17.078125 16.628906 17.367188 16.488281 17.695312 16.4375 C 18.023438 16.382812 18.34375 16.425781 18.648438 16.5625 C 18.710938 16.589844 18.769531 16.621094 18.828125 16.65625 C 19.09375 16.816406 19.296875 17.03125 19.445312 17.300781 C 19.59375 17.574219 19.664062 17.867188 19.65625 18.175781 Z M 19.65625 18.175781 " fill-opacity="1" fill-rule="nonzero"/><g clip-path="url(#c612e68bb5)"><g clip-path="url(#9b3128ed8a)"><path fill="#feab82" d="M 14.394531 20.535156 L 17.285156 20.535156 L 17.285156 23.285156 L 14.394531 23.285156 Z M 14.394531 20.535156 " fill-opacity="1" fill-rule="nonzero"/></g></g></svg>