<svg xmlns="http://www.w3.org/2000/svg" xmlns:xlink="http://www.w3.org/1999/xlink" width="500" zoomAndPan="magnify" viewBox="0 0 375 374.999991" height="500" preserveAspectRatio="xMidYMid meet" version="1.0"><defs><clipPath id="ee557fb5bc"><path d="M 160.460938 187.5 L 199.496094 187.5 L 199.496094 224.652344 L 160.460938 224.652344 Z M 160.460938 187.5 " clip-rule="nonzero"/></clipPath><clipPath id="177c5e9e84"><path d="M 179.949219 187.5 L 184.550781 201.691406 L 199.4375 201.691406 L 187.394531 210.460938 L 191.992188 224.652344 L 179.949219 215.882812 L 167.902344 224.652344 L 172.503906 210.460938 L 160.460938 201.691406 L 175.347656 201.691406 Z M 179.949219 187.5 " clip-rule="nonzero"/></clipPath></defs><path fill="#f9a8c9" d="M 132.660156 150.191406 C 128.210938 150.183594 123.464844 149.835938 119.628906 152.257812 C 113.847656 155.910156 112.511719 164.640625 114.542969 171.515625 C 116.570312 178.386719 121.109375 184 124.996094 189.875 C 128.878906 195.75 132.316406 202.625 131.597656 209.792969 C 131.125 214.484375 128.898438 218.855469 128.71875 223.566406 C 128.476562 230.035156 132.230469 236.070312 137.074219 239.90625 C 141.921875 243.746094 147.765625 245.777344 153.496094 247.746094 C 161.328125 250.4375 169.621094 253.15625 177.636719 251.191406 C 191.339844 247.824219 199.894531 231.929688 213.484375 228.070312 C 222.667969 225.464844 232.667969 228.839844 241.796875 226.023438 C 251.636719 222.984375 258.71875 212.867188 260.613281 202.042969 C 262.511719 191.21875 259.84375 179.929688 255.148438 170.144531 C 250.449219 160.355469 243.8125 151.828125 237.234375 143.386719 C 231.75 136.351562 225.878906 129.015625 217.851562 125.898438 C 208.242188 122.164062 197.3125 124.96875 188.050781 128.578125 C 181.929688 130.960938 176.898438 135.496094 171.371094 139.058594 C 165.449219 142.875 158.726562 145.644531 152.058594 147.515625 C 145.730469 149.285156 139.199219 150.207031 132.660156 150.191406 " fill-opacity="1" fill-rule="nonzero"/><g clip-path="url(#ee557fb5bc)"><g clip-path="url(#177c5e9e84)"><path fill="#f9a8c9" d="M 160.460938 187.5 L 199.496094 187.5 L 199.496094 224.652344 L 160.460938 224.652344 Z M 160.460938 187.5 " fill-opacity="1" fill-rule="nonzero"/></g></g></svg>