<svg xmlns="http://www.w3.org/2000/svg" xmlns:xlink="http://www.w3.org/1999/xlink" width="50" zoomAndPan="magnify" viewBox="0 0 37.5 37.499999" height="50" preserveAspectRatio="xMidYMid meet" version="1.0"><defs><clipPath id="12837449ed"><path d="M 9 15 L 31 15 L 31 26 L 9 26 Z M 9 15 " clip-rule="nonzero"/></clipPath><clipPath id="e5c7272a58"><path d="M 6.671875 20.140625 L 15.988281 6.785156 L 30.554688 16.949219 L 21.238281 30.304688 Z M 6.671875 20.140625 " clip-rule="nonzero"/></clipPath><clipPath id="32967d3226"><path d="M 6.671875 20.140625 L 15.988281 6.785156 L 30.554688 16.949219 L 21.238281 30.304688 Z M 6.671875 20.140625 " clip-rule="nonzero"/></clipPath><clipPath id="cfe0c0afa6"><path d="M 6.671875 20.140625 L 15.988281 6.785156 L 30.554688 16.949219 L 21.238281 30.304688 Z M 6.671875 20.140625 " clip-rule="nonzero"/></clipPath><clipPath id="c723000627"><path d="M 15.472656 22.3125 L 16.71875 22.3125 L 16.71875 23.496094 L 15.472656 23.496094 Z M 15.472656 22.3125 " clip-rule="nonzero"/></clipPath><clipPath id="66848ae606"><path d="M 16.09375 22.3125 L 16.242188 22.761719 L 16.714844 22.761719 L 16.332031 23.042969 L 16.476562 23.496094 L 16.09375 23.214844 L 15.710938 23.496094 L 15.855469 23.042969 L 15.472656 22.761719 L 15.949219 22.761719 Z M 16.09375 22.3125 " clip-rule="nonzero"/></clipPath></defs><g clip-path="url(#12837449ed)"><g clip-path="url(#e5c7272a58)"><g clip-path="url(#32967d3226)"><g clip-path="url(#cfe0c0afa6)"><path fill="#000000" d="M 9.480469 16.234375 C 9.183594 17.957031 9.601562 19.765625 10.472656 21.277344 C 11.421875 22.929688 13.019531 24.570312 15.035156 24.671875 C 15.933594 24.71875 16.847656 24.449219 17.496094 23.820312 C 18.253906 23.082031 18.574219 22.042969 18.742188 21.019531 C 18.816406 20.546875 18.882812 20.054688 18.878906 19.574219 C 18.878906 19.097656 18.804688 18.609375 18.546875 18.195312 C 18.285156 17.769531 17.867188 17.429688 17.355469 17.371094 C 17.09375 17.339844 16.808594 17.394531 16.605469 17.566406 C 16.375 17.761719 16.292969 18.058594 16.234375 18.34375 C 16.128906 18.839844 16.152344 19.351562 16.195312 19.855469 C 16.238281 20.320312 16.3125 20.78125 16.425781 21.234375 C 16.660156 22.15625 17.046875 23.042969 17.628906 23.804688 C 18.234375 24.597656 19.054688 25.238281 19.988281 25.597656 C 20.84375 25.921875 21.792969 25.984375 22.671875 25.730469 C 23.527344 25.480469 24.3125 24.96875 24.796875 24.210938 C 25.347656 23.339844 25.476562 22.292969 25.523438 21.28125 C 25.570312 20.324219 25.578125 19.34375 25.359375 18.40625 C 25.140625 17.472656 24.679688 16.453125 23.789062 15.980469 C 23.539062 15.84375 23.191406 15.679688 22.9375 15.890625 C 22.710938 16.074219 22.742188 16.382812 22.753906 16.640625 C 22.777344 17.109375 22.824219 17.578125 22.949219 18.03125 C 23.074219 18.488281 23.269531 18.925781 23.578125 19.296875 C 23.867188 19.640625 24.242188 19.902344 24.65625 20.074219 C 25.476562 20.414062 26.421875 20.378906 27.246094 20.09375 C 28.179688 19.765625 28.945312 19.078125 29.554688 18.324219 C 29.851562 17.957031 30.113281 17.566406 30.359375 17.164062 C 30.433594 17.039062 30.421875 16.855469 30.285156 16.769531 C 30.160156 16.691406 29.972656 16.703125 29.890625 16.839844 C 29.652344 17.230469 29.394531 17.613281 29.105469 17.972656 C 29.035156 18.066406 28.957031 18.15625 28.878906 18.242188 C 28.863281 18.261719 28.847656 18.28125 28.832031 18.296875 C 28.824219 18.304688 28.78125 18.351562 28.8125 18.316406 C 28.769531 18.367188 28.71875 18.417969 28.671875 18.464844 C 28.515625 18.625 28.351562 18.773438 28.179688 18.914062 C 28.089844 18.984375 27.996094 19.054688 27.898438 19.121094 C 27.859375 19.148438 27.820312 19.171875 27.78125 19.199219 C 27.703125 19.25 27.824219 19.171875 27.742188 19.222656 C 27.710938 19.242188 27.679688 19.261719 27.644531 19.28125 C 27.460938 19.386719 27.273438 19.476562 27.074219 19.550781 C 27.027344 19.570312 26.980469 19.585938 26.933594 19.601562 C 26.855469 19.628906 26.984375 19.589844 26.90625 19.609375 C 26.878906 19.617188 26.855469 19.625 26.832031 19.632812 C 26.734375 19.65625 26.632812 19.679688 26.535156 19.699219 C 26.441406 19.714844 26.347656 19.726562 26.257812 19.738281 C 26.207031 19.742188 26.15625 19.746094 26.105469 19.75 C 26.023438 19.753906 26.136719 19.75 26.085938 19.75 C 26.058594 19.75 26.027344 19.753906 26 19.753906 C 25.796875 19.753906 25.59375 19.738281 25.394531 19.703125 C 25.375 19.699219 25.351562 19.695312 25.332031 19.691406 C 25.320312 19.691406 25.265625 19.679688 25.320312 19.691406 C 25.269531 19.679688 25.222656 19.667969 25.171875 19.652344 C 25.078125 19.628906 24.984375 19.597656 24.890625 19.558594 C 24.84375 19.542969 24.800781 19.523438 24.753906 19.503906 C 24.730469 19.492188 24.710938 19.480469 24.6875 19.472656 C 24.636719 19.445312 24.679688 19.46875 24.6875 19.472656 C 24.59375 19.421875 24.503906 19.367188 24.417969 19.304688 C 24.339844 19.253906 24.269531 19.195312 24.203125 19.136719 C 24.140625 19.082031 24.242188 19.179688 24.1875 19.121094 C 24.167969 19.105469 24.148438 19.085938 24.132812 19.070312 C 24.097656 19.03125 24.0625 18.996094 24.03125 18.957031 C 23.964844 18.882812 23.910156 18.800781 23.851562 18.722656 C 23.804688 18.648438 23.878906 18.769531 23.835938 18.695312 C 23.820312 18.671875 23.808594 18.648438 23.796875 18.625 C 23.765625 18.570312 23.734375 18.515625 23.707031 18.460938 C 23.664062 18.375 23.628906 18.285156 23.59375 18.195312 C 23.574219 18.148438 23.558594 18.101562 23.542969 18.054688 C 23.527344 18.007812 23.5625 18.117188 23.539062 18.035156 C 23.527344 18 23.515625 17.96875 23.507812 17.933594 C 23.394531 17.523438 23.34375 17.09375 23.320312 16.671875 C 23.324219 16.726562 23.320312 16.636719 23.320312 16.636719 C 23.320312 16.609375 23.316406 16.582031 23.316406 16.554688 C 23.316406 16.511719 23.3125 16.464844 23.3125 16.421875 C 23.3125 16.394531 23.316406 16.367188 23.316406 16.339844 C 23.316406 16.273438 23.296875 16.363281 23.320312 16.304688 C 23.347656 16.246094 23.3125 16.316406 23.300781 16.328125 C 23.277344 16.351562 23.246094 16.359375 23.214844 16.351562 C 23.246094 16.355469 23.25 16.355469 23.230469 16.351562 C 23.195312 16.347656 23.269531 16.363281 23.269531 16.363281 C 23.296875 16.375 23.324219 16.382812 23.351562 16.394531 C 23.40625 16.414062 23.457031 16.4375 23.507812 16.464844 C 23.457031 16.4375 23.539062 16.480469 23.542969 16.484375 C 23.558594 16.492188 23.574219 16.503906 23.589844 16.511719 C 23.648438 16.546875 23.703125 16.585938 23.753906 16.625 C 23.800781 16.660156 23.84375 16.695312 23.886719 16.734375 C 23.851562 16.703125 23.886719 16.738281 23.894531 16.742188 C 23.914062 16.761719 23.933594 16.78125 23.957031 16.804688 C 24.035156 16.886719 24.109375 16.976562 24.179688 17.070312 C 24.3125 17.246094 24.40625 17.414062 24.507812 17.636719 C 24.550781 17.730469 24.589844 17.828125 24.628906 17.925781 C 24.648438 17.976562 24.667969 18.03125 24.683594 18.085938 C 24.683594 18.085938 24.714844 18.171875 24.699219 18.121094 C 24.707031 18.148438 24.714844 18.175781 24.722656 18.203125 C 24.785156 18.417969 24.835938 18.640625 24.871094 18.859375 C 24.910156 19.074219 24.933594 19.289062 24.953125 19.507812 C 24.957031 19.5625 24.960938 19.621094 24.964844 19.675781 C 24.964844 19.675781 24.96875 19.769531 24.96875 19.71875 C 24.96875 19.746094 24.96875 19.773438 24.972656 19.800781 C 24.976562 19.917969 24.980469 20.03125 24.980469 20.144531 C 24.984375 20.597656 24.972656 21.050781 24.941406 21.503906 C 24.929688 21.734375 24.910156 21.964844 24.878906 22.195312 C 24.863281 22.3125 24.84375 22.425781 24.824219 22.539062 C 24.820312 22.5625 24.816406 22.589844 24.808594 22.613281 C 24.792969 22.707031 24.820312 22.5625 24.800781 22.660156 C 24.785156 22.726562 24.769531 22.792969 24.753906 22.863281 C 24.695312 23.082031 24.621094 23.296875 24.53125 23.503906 C 24.507812 23.558594 24.480469 23.613281 24.453125 23.667969 C 24.480469 23.617188 24.433594 23.703125 24.433594 23.703125 C 24.421875 23.726562 24.410156 23.746094 24.398438 23.769531 C 24.339844 23.867188 24.277344 23.960938 24.210938 24.054688 C 24.15625 24.128906 24.097656 24.199219 24.039062 24.269531 C 23.984375 24.332031 24.078125 24.226562 24.019531 24.285156 C 24.003906 24.304688 23.988281 24.324219 23.96875 24.339844 C 23.933594 24.375 23.898438 24.410156 23.859375 24.445312 C 23.710938 24.578125 23.550781 24.703125 23.382812 24.808594 C 23.425781 24.78125 23.390625 24.804688 23.378906 24.808594 C 23.359375 24.824219 23.335938 24.835938 23.316406 24.847656 C 23.269531 24.875 23.226562 24.898438 23.183594 24.921875 C 23.09375 24.96875 23 25.011719 22.90625 25.050781 C 22.820312 25.085938 22.734375 25.117188 22.644531 25.148438 C 22.621094 25.15625 22.597656 25.164062 22.574219 25.171875 C 22.632812 25.152344 22.550781 25.175781 22.542969 25.179688 C 22.488281 25.195312 22.429688 25.210938 22.371094 25.222656 C 22.183594 25.269531 21.988281 25.296875 21.792969 25.3125 C 21.765625 25.316406 21.742188 25.316406 21.714844 25.320312 C 21.710938 25.320312 21.625 25.324219 21.6875 25.320312 C 21.644531 25.324219 21.601562 25.324219 21.558594 25.324219 C 21.449219 25.324219 21.335938 25.320312 21.226562 25.308594 C 21.011719 25.292969 20.8125 25.253906 20.640625 25.210938 C 20.421875 25.15625 20.207031 25.082031 20 24.992188 C 19.953125 24.972656 19.90625 24.949219 19.855469 24.925781 C 19.832031 24.914062 19.804688 24.902344 19.777344 24.890625 C 19.777344 24.886719 19.691406 24.84375 19.742188 24.871094 C 19.640625 24.816406 19.539062 24.761719 19.441406 24.699219 C 19.253906 24.582031 19.070312 24.453125 18.898438 24.3125 C 18.851562 24.277344 18.808594 24.238281 18.765625 24.199219 C 18.742188 24.179688 18.722656 24.160156 18.699219 24.140625 C 18.628906 24.078125 18.738281 24.179688 18.671875 24.113281 C 18.585938 24.035156 18.503906 23.953125 18.421875 23.867188 C 18.269531 23.703125 18.128906 23.53125 17.996094 23.351562 C 17.929688 23.261719 17.867188 23.167969 17.804688 23.074219 C 17.773438 23.023438 17.792969 23.054688 17.796875 23.066406 C 17.785156 23.042969 17.769531 23.015625 17.753906 22.992188 C 17.722656 22.9375 17.6875 22.882812 17.65625 22.824219 C 17.550781 22.640625 17.457031 22.449219 17.367188 22.253906 C 17.277344 22.050781 17.199219 21.839844 17.128906 21.628906 C 17.117188 21.601562 17.109375 21.578125 17.101562 21.550781 C 17.113281 21.589844 17.101562 21.546875 17.097656 21.539062 C 17.082031 21.484375 17.066406 21.433594 17.050781 21.378906 C 17.019531 21.269531 16.992188 21.164062 16.964844 21.054688 C 16.863281 20.628906 16.792969 20.195312 16.753906 19.757812 C 16.75 19.703125 16.746094 19.648438 16.742188 19.59375 C 16.738281 19.5625 16.738281 19.53125 16.734375 19.503906 C 16.726562 19.40625 16.734375 19.527344 16.734375 19.472656 C 16.726562 19.347656 16.722656 19.222656 16.726562 19.097656 C 16.730469 18.871094 16.746094 18.640625 16.792969 18.421875 C 16.785156 18.46875 16.804688 18.375 16.804688 18.375 C 16.8125 18.347656 16.820312 18.320312 16.828125 18.289062 C 16.839844 18.242188 16.855469 18.195312 16.875 18.148438 C 16.875 18.148438 16.917969 18.0625 16.890625 18.109375 C 16.90625 18.082031 16.925781 18.058594 16.941406 18.035156 C 16.980469 17.976562 16.914062 18.046875 16.96875 18.003906 C 16.984375 17.992188 16.996094 17.984375 17.011719 17.972656 C 16.984375 17.988281 16.988281 17.988281 17.015625 17.972656 C 17.035156 17.964844 17.054688 17.957031 17.074219 17.949219 C 17.117188 17.929688 17.015625 17.953125 17.09375 17.941406 C 17.121094 17.9375 17.148438 17.933594 17.171875 17.929688 C 17.25 17.917969 17.128906 17.925781 17.207031 17.929688 C 17.257812 17.929688 17.308594 17.933594 17.363281 17.941406 C 17.371094 17.941406 17.414062 17.953125 17.367188 17.941406 C 17.398438 17.949219 17.433594 17.957031 17.464844 17.96875 C 17.515625 17.984375 17.5625 18.007812 17.609375 18.027344 C 17.546875 18 17.625 18.039062 17.628906 18.042969 C 17.644531 18.050781 17.660156 18.0625 17.675781 18.070312 C 17.71875 18.101562 17.757812 18.132812 17.800781 18.164062 C 17.804688 18.167969 17.867188 18.230469 17.820312 18.183594 C 17.847656 18.207031 17.871094 18.234375 17.894531 18.257812 C 17.925781 18.292969 17.953125 18.328125 17.980469 18.359375 C 17.996094 18.382812 18.011719 18.402344 18.027344 18.425781 C 18.03125 18.429688 18.078125 18.503906 18.046875 18.453125 C 18.101562 18.542969 18.148438 18.640625 18.1875 18.738281 C 18.199219 18.765625 18.207031 18.789062 18.214844 18.816406 C 18.199219 18.765625 18.226562 18.851562 18.226562 18.851562 C 18.238281 18.898438 18.25 18.941406 18.257812 18.988281 C 18.28125 19.105469 18.296875 19.226562 18.308594 19.34375 C 18.308594 19.351562 18.3125 19.398438 18.308594 19.355469 C 18.308594 19.382812 18.3125 19.414062 18.3125 19.441406 C 18.3125 19.496094 18.3125 19.550781 18.3125 19.609375 C 18.3125 19.722656 18.304688 19.832031 18.296875 19.945312 C 18.226562 20.878906 18.09375 21.789062 17.671875 22.632812 C 17.695312 22.582031 17.652344 22.667969 17.652344 22.667969 C 17.636719 22.695312 17.621094 22.71875 17.609375 22.746094 C 17.582031 22.789062 17.558594 22.828125 17.53125 22.871094 C 17.472656 22.96875 17.402344 23.0625 17.332031 23.15625 C 17.296875 23.203125 17.257812 23.246094 17.21875 23.289062 C 17.15625 23.359375 17.257812 23.253906 17.191406 23.320312 C 17.171875 23.339844 17.152344 23.359375 17.128906 23.382812 C 17.046875 23.464844 16.957031 23.539062 16.863281 23.609375 C 16.824219 23.640625 16.785156 23.667969 16.746094 23.695312 C 16.730469 23.707031 16.710938 23.714844 16.695312 23.726562 C 16.746094 23.695312 16.675781 23.738281 16.671875 23.742188 C 16.585938 23.789062 16.496094 23.835938 16.40625 23.875 C 16.316406 23.917969 16.222656 23.949219 16.128906 23.980469 C 16.074219 24 16.113281 23.984375 16.125 23.984375 C 16.101562 23.988281 16.078125 23.996094 16.054688 24.003906 C 15.996094 24.019531 15.941406 24.03125 15.882812 24.042969 C 15.792969 24.0625 15.703125 24.078125 15.609375 24.089844 C 15.5625 24.09375 15.511719 24.101562 15.460938 24.105469 C 15.4375 24.105469 15.410156 24.109375 15.386719 24.109375 C 15.324219 24.113281 15.421875 24.109375 15.355469 24.109375 C 15.152344 24.113281 14.953125 24.105469 14.75 24.074219 C 14.707031 24.070312 14.667969 24.0625 14.625 24.054688 C 14.601562 24.050781 14.574219 24.046875 14.550781 24.042969 C 14.542969 24.039062 14.460938 24.023438 14.523438 24.035156 C 14.425781 24.011719 14.324219 23.988281 14.230469 23.957031 C 14.125 23.925781 14.019531 23.886719 13.914062 23.84375 C 13.863281 23.824219 13.808594 23.800781 13.753906 23.777344 C 13.726562 23.761719 13.699219 23.75 13.667969 23.734375 C 13.65625 23.730469 13.566406 23.683594 13.59375 23.699219 C 13.378906 23.589844 13.171875 23.457031 12.972656 23.316406 C 12.875 23.242188 12.777344 23.167969 12.683594 23.089844 C 12.585938 23.011719 12.484375 22.921875 12.414062 22.859375 C 12.074219 22.535156 11.765625 22.179688 11.488281 21.804688 C 11.367188 21.644531 11.253906 21.480469 11.148438 21.3125 C 11.179688 21.363281 11.136719 21.292969 11.132812 21.285156 C 11.117188 21.265625 11.105469 21.242188 11.09375 21.21875 C 11.070312 21.183594 11.046875 21.144531 11.027344 21.109375 C 10.96875 21.011719 10.914062 20.914062 10.859375 20.8125 C 10.671875 20.460938 10.507812 20.09375 10.371094 19.714844 C 10.355469 19.667969 10.339844 19.625 10.324219 19.578125 C 10.316406 19.554688 10.308594 19.53125 10.300781 19.507812 C 10.296875 19.5 10.273438 19.421875 10.289062 19.476562 C 10.257812 19.378906 10.230469 19.28125 10.203125 19.179688 C 10.152344 18.984375 10.105469 18.789062 10.070312 18.589844 C 10.03125 18.394531 10.003906 18.195312 9.984375 17.996094 C 9.972656 17.902344 9.96875 17.808594 9.960938 17.714844 C 9.957031 17.628906 9.960938 17.769531 9.960938 17.683594 C 9.957031 17.660156 9.957031 17.632812 9.957031 17.609375 C 9.953125 17.558594 9.953125 17.507812 9.953125 17.453125 C 9.949219 17.0625 9.980469 16.667969 10.046875 16.28125 C 10.070312 16.136719 9.925781 15.984375 9.785156 15.976562 C 9.617188 15.96875 9.503906 16.078125 9.480469 16.234375 Z M 9.480469 16.234375 " fill-opacity="1" fill-rule="nonzero"/></g></g></g></g><g clip-path="url(#c723000627)"><g clip-path="url(#66848ae606)"><path fill="#ffffff" d="M 15.472656 22.3125 L 16.71875 22.3125 L 16.71875 23.496094 L 15.472656 23.496094 Z M 15.472656 22.3125 " fill-opacity="1" fill-rule="nonzero"/></g></g></svg>