<svg xmlns="http://www.w3.org/2000/svg" xmlns:xlink="http://www.w3.org/1999/xlink" width="50" zoomAndPan="magnify" viewBox="0 0 37.5 37.499999" height="50" preserveAspectRatio="xMidYMid meet" version="1.0"><defs><clipPath id="e6d4263f6d"><path d="M 11.546875 11.101562 L 25.609375 11.101562 L 25.609375 23 L 11.546875 23 Z M 11.546875 11.101562 " clip-rule="nonzero"/></clipPath><clipPath id="faefdc87ec"><path d="M 16 24 L 19 24 L 19 25.90625 L 16 25.90625 Z M 16 24 " clip-rule="nonzero"/></clipPath><clipPath id="9f72ac271d"><path d="M 16.863281 16.941406 L 18.503906 16.941406 L 18.503906 18.503906 L 16.863281 18.503906 Z M 16.863281 16.941406 " clip-rule="nonzero"/></clipPath><clipPath id="a3df3d6865"><path d="M 17.683594 16.941406 L 17.878906 17.539062 L 18.503906 17.539062 L 17.996094 17.90625 L 18.191406 18.503906 L 17.683594 18.132812 L 17.179688 18.503906 L 17.371094 17.90625 L 16.863281 17.539062 L 17.492188 17.539062 Z M 17.683594 16.941406 " clip-rule="nonzero"/></clipPath></defs><g clip-path="url(#e6d4263f6d)"><path fill="#f4bc33" d="M 14.324219 21.816406 C 13.914062 22.03125 13.503906 22.039062 13.128906 21.628906 C 12.421875 20.859375 13.390625 20.503906 14.050781 20.363281 C 14.597656 20.242188 15.210938 19.742188 15.34375 19.191406 C 15.464844 18.679688 15.273438 18.203125 14.75 17.964844 C 14.566406 17.878906 14.382812 17.761719 14.179688 17.730469 C 13.980469 17.699219 13.777344 17.726562 13.578125 17.722656 C 13.234375 17.714844 12.96875 17.8125 12.640625 17.898438 C 12.304688 17.984375 11.859375 17.832031 11.6875 17.519531 C 11.542969 17.257812 11.632812 16.921875 11.808594 16.695312 C 12.027344 16.417969 12.28125 16.308594 12.628906 16.3125 C 13.34375 16.316406 14.699219 17.640625 15.269531 16.667969 C 15.710938 15.910156 13.804688 14.726562 13.550781 14.074219 C 13.324219 13.5 13.308594 12.492188 13.917969 12.121094 C 15.582031 11.109375 16.203125 14.261719 16.683594 15.144531 C 18.199219 17.9375 18.4375 14.515625 19.5 13.789062 C 20.132812 13.359375 20.9375 13.460938 21.109375 14.121094 C 21.359375 15.09375 19.792969 15.671875 19.90625 16.328125 C 20.191406 17.957031 23.984375 17.125 25.023438 18.050781 C 25.488281 18.464844 25.609375 18.835938 25.382812 19.445312 C 24.9375 20.648438 24.023438 20.316406 23.035156 20.082031 C 22.550781 19.964844 22.074219 19.730469 21.5625 19.753906 C 21.335938 19.765625 21.070312 19.835938 20.957031 20.050781 C 20.804688 20.339844 21.082031 20.542969 21.253906 20.746094 C 21.46875 21.003906 21.53125 21.414062 21.320312 21.699219 C 21.019531 22.105469 20.503906 22.171875 20.117188 21.851562 C 19.636719 21.449219 19.675781 20.046875 18.773438 20.167969 C 18.070312 20.261719 18.332031 21.339844 18.128906 21.78125 C 17.828125 22.4375 16.714844 22.699219 16.390625 21.925781 C 16.226562 21.539062 16.367188 20.90625 15.886719 20.777344 C 15.355469 20.632812 14.984375 21.34375 14.628906 21.613281 C 14.527344 21.691406 14.425781 21.761719 14.324219 21.816406 Z M 14.324219 21.816406 " fill-opacity="1" fill-rule="nonzero"/></g><g clip-path="url(#faefdc87ec)"><path fill="#f4bc33" d="M 17.960938 24.179688 C 18.382812 24.394531 18.550781 24.90625 18.332031 25.324219 C 18.113281 25.738281 17.597656 25.902344 17.175781 25.6875 C 16.753906 25.472656 16.589844 24.960938 16.808594 24.546875 C 17.023438 24.128906 17.539062 23.964844 17.960938 24.179688 Z M 17.960938 24.179688 " fill-opacity="1" fill-rule="nonzero"/></g><g clip-path="url(#9f72ac271d)"><g clip-path="url(#a3df3d6865)"><path fill="#f4bc33" d="M 16.863281 16.941406 L 18.503906 16.941406 L 18.503906 18.503906 L 16.863281 18.503906 Z M 16.863281 16.941406 " fill-opacity="1" fill-rule="nonzero"/></g></g></svg>