<svg xmlns="http://www.w3.org/2000/svg" xmlns:xlink="http://www.w3.org/1999/xlink" width="50" zoomAndPan="magnify" viewBox="0 0 37.5 37.499999" height="50" preserveAspectRatio="xMidYMid meet" version="1.0"><defs><clipPath id="2f9c78a972"><path d="M 10.390625 9.738281 L 26.671875 9.738281 L 26.671875 27.5 L 10.390625 27.5 Z M 10.390625 9.738281 " clip-rule="nonzero"/></clipPath><clipPath id="52455815cf"><path d="M 14.140625 9.738281 L 15.386719 9.738281 L 15.386719 10.921875 L 14.140625 10.921875 Z M 14.140625 9.738281 " clip-rule="nonzero"/></clipPath><clipPath id="0b304f15e7"><path d="M 14.765625 9.738281 L 14.910156 10.1875 L 15.386719 10.1875 L 15 10.46875 L 15.148438 10.921875 L 14.765625 10.640625 L 14.378906 10.921875 L 14.527344 10.46875 L 14.140625 10.1875 L 14.617188 10.1875 Z M 14.765625 9.738281 " clip-rule="nonzero"/></clipPath></defs><g clip-path="url(#2f9c78a972)"><path fill="#000000" d="M 15.199219 9.804688 C 13.617188 10.550781 12.375 11.925781 11.632812 13.503906 C 10.820312 15.230469 10.390625 17.476562 11.460938 19.191406 C 11.933594 19.953125 12.679688 20.550781 13.566406 20.71875 C 14.605469 20.917969 15.640625 20.585938 16.574219 20.140625 C 17.007812 19.929688 17.445312 19.703125 17.839844 19.425781 C 18.230469 19.152344 18.589844 18.808594 18.78125 18.363281 C 18.980469 17.902344 19.019531 17.367188 18.773438 16.914062 C 18.648438 16.683594 18.441406 16.480469 18.183594 16.414062 C 17.890625 16.335938 17.601562 16.4375 17.335938 16.550781 C 16.867188 16.75 16.460938 17.058594 16.074219 17.386719 C 15.714844 17.683594 15.378906 18.011719 15.074219 18.363281 C 14.453125 19.082031 13.945312 19.910156 13.652344 20.824219 C 13.351562 21.769531 13.292969 22.8125 13.535156 23.78125 C 13.757812 24.667969 14.25 25.484375 14.960938 26.058594 C 15.65625 26.617188 16.523438 26.96875 17.421875 26.929688 C 18.453125 26.886719 19.386719 26.390625 20.242188 25.851562 C 21.050781 25.339844 21.859375 24.789062 22.503906 24.070312 C 23.144531 23.359375 23.71875 22.394531 23.597656 21.394531 C 23.5625 21.113281 23.5 20.734375 23.183594 20.644531 C 22.902344 20.566406 22.667969 20.765625 22.460938 20.925781 C 22.09375 21.210938 21.734375 21.519531 21.433594 21.878906 C 21.132812 22.242188 20.882812 22.65625 20.757812 23.117188 C 20.636719 23.554688 20.636719 24.011719 20.734375 24.449219 C 20.925781 25.316406 21.492188 26.074219 22.199219 26.582031 C 23 27.160156 24.007812 27.394531 24.976562 27.464844 C 25.445312 27.496094 25.914062 27.488281 26.382812 27.460938 C 26.53125 27.449219 26.671875 27.335938 26.664062 27.175781 C 26.660156 27.027344 26.542969 26.878906 26.382812 26.890625 C 25.925781 26.917969 25.464844 26.925781 25.003906 26.898438 C 24.886719 26.890625 24.769531 26.878906 24.652344 26.867188 C 24.628906 26.863281 24.605469 26.859375 24.582031 26.855469 C 24.570312 26.855469 24.507812 26.847656 24.554688 26.851562 C 24.488281 26.84375 24.421875 26.832031 24.351562 26.824219 C 24.132812 26.785156 23.917969 26.734375 23.703125 26.671875 C 23.59375 26.640625 23.480469 26.601562 23.375 26.5625 C 23.328125 26.546875 23.285156 26.527344 23.238281 26.511719 C 23.152344 26.476562 23.285156 26.53125 23.199219 26.492188 C 23.164062 26.476562 23.128906 26.460938 23.09375 26.445312 C 22.90625 26.355469 22.722656 26.253906 22.546875 26.132812 C 22.507812 26.105469 22.464844 26.074219 22.425781 26.046875 C 22.359375 25.996094 22.464844 26.082031 22.402344 26.027344 C 22.382812 26.011719 22.363281 25.996094 22.34375 25.980469 C 22.265625 25.914062 22.191406 25.84375 22.117188 25.773438 C 22.050781 25.707031 21.988281 25.640625 21.925781 25.570312 C 21.894531 25.53125 21.859375 25.488281 21.828125 25.449219 C 21.777344 25.386719 21.847656 25.476562 21.820312 25.4375 C 21.800781 25.414062 21.785156 25.390625 21.765625 25.367188 C 21.648438 25.199219 21.546875 25.027344 21.460938 24.84375 C 21.453125 24.824219 21.441406 24.804688 21.433594 24.785156 C 21.429688 24.773438 21.40625 24.722656 21.429688 24.773438 C 21.410156 24.726562 21.390625 24.679688 21.375 24.632812 C 21.34375 24.539062 21.3125 24.445312 21.289062 24.347656 C 21.277344 24.300781 21.269531 24.25 21.261719 24.203125 C 21.253906 24.179688 21.25 24.152344 21.246094 24.128906 C 21.238281 24.074219 21.246094 24.121094 21.246094 24.132812 C 21.234375 24.027344 21.226562 23.917969 21.226562 23.8125 C 21.226562 23.722656 21.234375 23.632812 21.242188 23.542969 C 21.25 23.460938 21.230469 23.597656 21.246094 23.519531 C 21.25 23.492188 21.253906 23.46875 21.257812 23.445312 C 21.269531 23.394531 21.28125 23.34375 21.292969 23.296875 C 21.320312 23.199219 21.351562 23.109375 21.382812 23.015625 C 21.414062 22.933594 21.359375 23.066406 21.398438 22.984375 C 21.40625 22.960938 21.417969 22.9375 21.429688 22.914062 C 21.457031 22.859375 21.484375 22.804688 21.515625 22.75 C 21.5625 22.664062 21.613281 22.582031 21.667969 22.5 C 21.695312 22.460938 21.722656 22.421875 21.753906 22.382812 C 21.785156 22.339844 21.710938 22.433594 21.765625 22.367188 C 21.789062 22.335938 21.8125 22.308594 21.832031 22.28125 C 22.105469 21.953125 22.425781 21.667969 22.761719 21.40625 C 22.71875 21.441406 22.789062 21.386719 22.789062 21.386719 C 22.8125 21.367188 22.832031 21.351562 22.855469 21.335938 C 22.890625 21.308594 22.925781 21.28125 22.960938 21.253906 C 22.984375 21.238281 23.007812 21.226562 23.03125 21.210938 C 23.085938 21.175781 23 21.210938 23.0625 21.199219 C 23.125 21.1875 23.046875 21.199219 23.03125 21.195312 C 23 21.1875 22.976562 21.167969 22.960938 21.140625 C 22.976562 21.164062 22.980469 21.167969 22.972656 21.152344 C 22.953125 21.117188 22.984375 21.191406 22.984375 21.191406 C 22.992188 21.21875 23 21.246094 23.007812 21.273438 C 23.019531 21.328125 23.03125 21.386719 23.039062 21.441406 C 23.03125 21.382812 23.042969 21.476562 23.042969 21.480469 C 23.042969 21.5 23.046875 21.519531 23.046875 21.535156 C 23.050781 21.601562 23.050781 21.667969 23.046875 21.738281 C 23.042969 21.792969 23.039062 21.851562 23.03125 21.90625 C 23.039062 21.863281 23.03125 21.910156 23.03125 21.917969 C 23.027344 21.945312 23.019531 21.972656 23.015625 22.003906 C 22.992188 22.117188 22.960938 22.230469 22.925781 22.339844 C 22.859375 22.546875 22.773438 22.722656 22.648438 22.933594 C 22.597656 23.023438 22.539062 23.109375 22.480469 23.195312 C 22.449219 23.242188 22.417969 23.289062 22.382812 23.332031 C 22.382812 23.335938 22.328125 23.40625 22.359375 23.367188 C 22.34375 23.386719 22.324219 23.410156 22.308594 23.433594 C 22.164062 23.609375 22.011719 23.773438 21.851562 23.933594 C 21.699219 24.085938 21.535156 24.226562 21.371094 24.367188 C 21.324219 24.402344 21.28125 24.4375 21.238281 24.472656 C 21.238281 24.472656 21.164062 24.53125 21.207031 24.5 C 21.183594 24.515625 21.160156 24.535156 21.136719 24.550781 C 21.046875 24.621094 20.957031 24.6875 20.863281 24.753906 C 20.496094 25.019531 20.113281 25.265625 19.726562 25.503906 C 19.527344 25.621094 19.328125 25.738281 19.121094 25.84375 C 19.019531 25.898438 18.914062 25.949219 18.808594 25.996094 C 18.785156 26.007812 18.765625 26.015625 18.742188 26.027344 C 18.652344 26.066406 18.789062 26.007812 18.699219 26.046875 C 18.632812 26.074219 18.570312 26.097656 18.503906 26.121094 C 18.289062 26.203125 18.070312 26.265625 17.847656 26.308594 C 17.789062 26.320312 17.730469 26.332031 17.671875 26.339844 C 17.726562 26.332031 17.628906 26.34375 17.632812 26.34375 C 17.605469 26.347656 17.582031 26.347656 17.558594 26.351562 C 17.445312 26.359375 17.332031 26.363281 17.214844 26.363281 C 17.125 26.359375 17.03125 26.351562 16.941406 26.339844 C 16.859375 26.332031 17 26.351562 16.917969 26.339844 C 16.890625 26.335938 16.867188 26.332031 16.84375 26.328125 C 16.792969 26.316406 16.742188 26.308594 16.695312 26.296875 C 16.5 26.253906 16.308594 26.191406 16.121094 26.113281 C 16.171875 26.132812 16.128906 26.117188 16.121094 26.113281 C 16.097656 26.101562 16.074219 26.089844 16.050781 26.082031 C 16.007812 26.058594 15.960938 26.035156 15.917969 26.011719 C 15.828125 25.964844 15.738281 25.914062 15.652344 25.863281 C 15.574219 25.8125 15.5 25.757812 15.425781 25.703125 C 15.402344 25.6875 15.382812 25.671875 15.363281 25.65625 C 15.410156 25.695312 15.34375 25.640625 15.339844 25.636719 C 15.292969 25.601562 15.25 25.5625 15.203125 25.523438 C 15.058594 25.390625 14.921875 25.25 14.796875 25.097656 C 14.78125 25.078125 14.765625 25.058594 14.75 25.039062 C 14.746094 25.035156 14.695312 24.96875 14.730469 25.015625 C 14.707031 24.980469 14.683594 24.949219 14.65625 24.914062 C 14.59375 24.820312 14.535156 24.730469 14.480469 24.632812 C 14.371094 24.445312 14.285156 24.261719 14.222656 24.097656 C 14.144531 23.882812 14.082031 23.667969 14.039062 23.445312 C 14.027344 23.394531 14.019531 23.34375 14.007812 23.289062 C 14.003906 23.261719 14 23.234375 13.996094 23.203125 C 13.996094 23.203125 13.980469 23.109375 13.988281 23.164062 C 13.972656 23.050781 13.964844 22.933594 13.957031 22.820312 C 13.945312 22.597656 13.949219 22.375 13.964844 22.152344 C 13.96875 22.09375 13.972656 22.035156 13.980469 21.976562 C 13.984375 21.949219 13.988281 21.921875 13.992188 21.890625 C 14 21.796875 13.980469 21.945312 13.996094 21.851562 C 14.011719 21.738281 14.03125 21.621094 14.058594 21.507812 C 14.101562 21.289062 14.164062 21.074219 14.234375 20.863281 C 14.269531 20.757812 14.3125 20.648438 14.355469 20.546875 C 14.375 20.492188 14.363281 20.523438 14.359375 20.535156 C 14.367188 20.511719 14.378906 20.484375 14.390625 20.460938 C 14.417969 20.398438 14.445312 20.339844 14.472656 20.28125 C 14.566406 20.089844 14.667969 19.902344 14.777344 19.71875 C 14.894531 19.527344 15.019531 19.34375 15.152344 19.164062 C 15.167969 19.140625 15.183594 19.121094 15.203125 19.097656 C 15.175781 19.132812 15.203125 19.09375 15.207031 19.089844 C 15.242188 19.046875 15.277344 19 15.3125 18.957031 C 15.382812 18.871094 15.457031 18.785156 15.53125 18.703125 C 15.820312 18.375 16.136719 18.070312 16.472656 17.789062 C 16.515625 17.753906 16.558594 17.71875 16.601562 17.683594 C 16.625 17.664062 16.648438 17.644531 16.671875 17.625 C 16.746094 17.566406 16.652344 17.640625 16.695312 17.605469 C 16.792969 17.53125 16.894531 17.457031 16.996094 17.386719 C 17.183594 17.261719 17.382812 17.140625 17.59375 17.054688 C 17.546875 17.074219 17.636719 17.039062 17.632812 17.039062 C 17.664062 17.027344 17.691406 17.015625 17.71875 17.007812 C 17.765625 16.992188 17.8125 16.976562 17.863281 16.964844 C 17.863281 16.964844 17.957031 16.953125 17.902344 16.957031 C 17.933594 16.953125 17.960938 16.953125 17.992188 16.953125 C 18.0625 16.953125 17.964844 16.9375 18.035156 16.960938 C 18.050781 16.964844 18.066406 16.972656 18.082031 16.976562 C 18.054688 16.964844 18.054688 16.964844 18.085938 16.980469 C 18.105469 16.992188 18.125 17.003906 18.140625 17.015625 C 18.179688 17.042969 18.101562 16.972656 18.15625 17.027344 C 18.171875 17.046875 18.191406 17.066406 18.210938 17.085938 C 18.265625 17.140625 18.1875 17.046875 18.230469 17.109375 C 18.261719 17.15625 18.285156 17.199219 18.308594 17.246094 C 18.316406 17.253906 18.332031 17.296875 18.3125 17.25 C 18.324219 17.28125 18.335938 17.3125 18.34375 17.347656 C 18.359375 17.398438 18.371094 17.445312 18.378906 17.5 C 18.367188 17.433594 18.378906 17.515625 18.378906 17.523438 C 18.378906 17.542969 18.382812 17.558594 18.382812 17.578125 C 18.382812 17.628906 18.382812 17.679688 18.378906 17.734375 C 18.375 17.742188 18.363281 17.824219 18.375 17.761719 C 18.367188 17.796875 18.363281 17.832031 18.355469 17.867188 C 18.34375 17.910156 18.332031 17.953125 18.320312 17.996094 C 18.3125 18.019531 18.304688 18.046875 18.292969 18.070312 C 18.292969 18.074219 18.257812 18.15625 18.28125 18.101562 C 18.238281 18.199219 18.1875 18.292969 18.128906 18.378906 C 18.113281 18.402344 18.097656 18.425781 18.082031 18.445312 C 18.113281 18.402344 18.058594 18.476562 18.058594 18.476562 C 18.027344 18.511719 17.996094 18.546875 17.964844 18.582031 C 17.882812 18.667969 17.792969 18.746094 17.699219 18.824219 C 17.695312 18.828125 17.65625 18.859375 17.691406 18.832031 C 17.667969 18.851562 17.644531 18.867188 17.625 18.882812 C 17.578125 18.917969 17.53125 18.949219 17.488281 18.980469 C 17.394531 19.042969 17.296875 19.101562 17.199219 19.160156 C 16.394531 19.636719 15.574219 20.050781 14.640625 20.183594 C 14.695312 20.175781 14.597656 20.1875 14.597656 20.1875 C 14.570312 20.191406 14.539062 20.195312 14.511719 20.195312 C 14.460938 20.203125 14.414062 20.203125 14.367188 20.207031 C 14.25 20.210938 14.132812 20.210938 14.015625 20.207031 C 13.957031 20.203125 13.902344 20.195312 13.84375 20.191406 C 13.75 20.179688 13.894531 20.199219 13.800781 20.183594 C 13.773438 20.179688 13.746094 20.175781 13.714844 20.167969 C 13.601562 20.148438 13.484375 20.117188 13.375 20.082031 C 13.328125 20.066406 13.285156 20.050781 13.238281 20.03125 C 13.21875 20.027344 13.203125 20.019531 13.183594 20.007812 C 13.242188 20.035156 13.164062 20 13.160156 20 C 13.066406 19.957031 12.980469 19.910156 12.894531 19.859375 C 12.808594 19.808594 12.730469 19.75 12.648438 19.691406 C 12.605469 19.65625 12.636719 19.683594 12.648438 19.6875 C 12.628906 19.671875 12.609375 19.65625 12.589844 19.640625 C 12.542969 19.605469 12.5 19.566406 12.457031 19.527344 C 12.390625 19.464844 12.328125 19.398438 12.265625 19.328125 C 12.234375 19.292969 12.199219 19.253906 12.167969 19.214844 C 12.152344 19.195312 12.136719 19.175781 12.121094 19.15625 C 12.082031 19.109375 12.140625 19.1875 12.105469 19.132812 C 11.984375 18.96875 11.878906 18.796875 11.785156 18.613281 C 11.765625 18.578125 11.746094 18.539062 11.730469 18.5 C 11.71875 18.476562 11.707031 18.453125 11.699219 18.429688 C 11.695312 18.425781 11.664062 18.347656 11.6875 18.40625 C 11.648438 18.3125 11.613281 18.214844 11.582031 18.121094 C 11.550781 18.015625 11.519531 17.90625 11.496094 17.796875 C 11.484375 17.742188 11.472656 17.683594 11.460938 17.628906 C 11.453125 17.597656 11.449219 17.566406 11.445312 17.535156 C 11.441406 17.523438 11.425781 17.421875 11.429688 17.453125 C 11.398438 17.210938 11.386719 16.964844 11.390625 16.722656 C 11.394531 16.601562 11.398438 16.480469 11.410156 16.355469 C 11.417969 16.230469 11.433594 16.097656 11.449219 16.003906 C 11.515625 15.539062 11.628906 15.082031 11.78125 14.636719 C 11.84375 14.449219 11.914062 14.261719 11.988281 14.078125 C 11.964844 14.136719 12 14.058594 12.003906 14.050781 C 12.011719 14.027344 12.023438 14.003906 12.03125 13.980469 C 12.050781 13.941406 12.066406 13.902344 12.085938 13.863281 C 12.132812 13.761719 12.183594 13.660156 12.234375 13.558594 C 12.414062 13.199219 12.625 12.855469 12.855469 12.527344 C 12.882812 12.488281 12.910156 12.449219 12.9375 12.414062 C 12.953125 12.390625 12.96875 12.371094 12.984375 12.351562 C 12.988281 12.347656 13.039062 12.277344 13.003906 12.328125 C 13.066406 12.246094 13.132812 12.164062 13.199219 12.085938 C 13.328125 11.929688 13.460938 11.78125 13.605469 11.636719 C 13.746094 11.496094 13.890625 11.355469 14.042969 11.226562 C 14.113281 11.164062 14.1875 11.105469 14.261719 11.046875 C 14.328125 10.996094 14.21875 11.078125 14.285156 11.027344 C 14.304688 11.015625 14.324219 11 14.34375 10.984375 C 14.386719 10.953125 14.425781 10.921875 14.46875 10.890625 C 14.789062 10.664062 15.128906 10.464844 15.484375 10.296875 C 15.617188 10.234375 15.660156 10.027344 15.585938 9.90625 C 15.496094 9.769531 15.339844 9.738281 15.199219 9.804688 Z M 15.199219 9.804688 " fill-opacity="1" fill-rule="nonzero"/></g><g clip-path="url(#52455815cf)"><g clip-path="url(#0b304f15e7)"><path fill="#222222" d="M 14.140625 9.738281 L 15.386719 9.738281 L 15.386719 10.921875 L 14.140625 10.921875 Z M 14.140625 9.738281 " fill-opacity="1" fill-rule="nonzero"/></g></g></svg>